<mxfile host="65bd71144e">
    <diagram id="cH-yPkPImQ-NwqW8dicZ" name="Page-1">
        <mxGraphModel dx="1545" dy="654" grid="1" gridSize="10" guides="1" tooltips="1" connect="1" arrows="1" fold="1" page="1" pageScale="1" pageWidth="1169" pageHeight="1654" math="0" shadow="0">
            <root>
                <mxCell id="0"/>
                <mxCell id="1" parent="0"/>
                <mxCell id="7" style="edgeStyle=entityRelationEdgeStyle;html=1;exitX=1;exitY=0.5;exitDx=0;exitDy=0;entryX=0;entryY=0.5;entryDx=0;entryDy=0;startArrow=none;startFill=0;" parent="1" source="2" target="6" edge="1">
                    <mxGeometry relative="1" as="geometry"/>
                </mxCell>
                <mxCell id="13" style="edgeStyle=entityRelationEdgeStyle;html=1;exitX=1;exitY=0.5;exitDx=0;exitDy=0;entryX=0;entryY=0.5;entryDx=0;entryDy=0;startArrow=none;startFill=0;" parent="1" source="2" target="12" edge="1">
                    <mxGeometry relative="1" as="geometry"/>
                </mxCell>
                <mxCell id="2" value="SYNCER" style="rounded=0;whiteSpace=wrap;html=1;fillColor=#1ba1e2;strokeColor=#006EAF;fontColor=#ffffff;fontStyle=1" parent="1" vertex="1">
                    <mxGeometry x="270" y="520" width="120" height="60" as="geometry"/>
                </mxCell>
                <mxCell id="4" style="edgeStyle=none;html=1;exitX=1;exitY=0.5;exitDx=0;exitDy=0;entryX=0;entryY=0.5;entryDx=0;entryDy=0;startArrow=classic;startFill=1;" parent="1" source="3" target="2" edge="1">
                    <mxGeometry relative="1" as="geometry"/>
                </mxCell>
                <mxCell id="5" value="socket-io" style="edgeLabel;html=1;align=center;verticalAlign=middle;resizable=0;points=[];" parent="4" vertex="1" connectable="0">
                    <mxGeometry x="0.1867" y="-3" relative="1" as="geometry">
                        <mxPoint x="-19" y="-13" as="offset"/>
                    </mxGeometry>
                </mxCell>
                <mxCell id="3" value="IO Server" style="rounded=0;whiteSpace=wrap;html=1;fillColor=#b1ddf0;strokeColor=#10739e;fontStyle=1" parent="1" vertex="1">
                    <mxGeometry x="40" y="520" width="120" height="60" as="geometry"/>
                </mxCell>
                <mxCell id="26" style="edgeStyle=entityRelationEdgeStyle;html=1;exitX=1;exitY=0.5;exitDx=0;exitDy=0;entryX=0;entryY=0.5;entryDx=0;entryDy=0;startArrow=none;startFill=0;endArrow=classic;endFill=1;" parent="1" source="6" target="25" edge="1">
                    <mxGeometry relative="1" as="geometry"/>
                </mxCell>
                <mxCell id="6" value="Execute App&lt;br&gt;&lt;span style=&quot;font-weight: normal;&quot;&gt;subpiper&lt;/span&gt;" style="rounded=0;whiteSpace=wrap;fillColor=#647687;strokeColor=#314354;fontColor=#ffffff;fontStyle=1;html=1;" parent="1" vertex="1">
                    <mxGeometry x="520" y="320" width="200" height="40" as="geometry"/>
                </mxCell>
                <mxCell id="9" style="edgeStyle=entityRelationEdgeStyle;html=1;exitX=0;exitY=0.5;exitDx=0;exitDy=0;entryX=1;entryY=0.5;entryDx=0;entryDy=0;startArrow=classic;startFill=1;endArrow=none;endFill=0;" parent="1" source="8" target="2" edge="1">
                    <mxGeometry relative="1" as="geometry"/>
                </mxCell>
                <mxCell id="24" style="edgeStyle=entityRelationEdgeStyle;html=1;exitX=1;exitY=0.5;exitDx=0;exitDy=0;entryX=0;entryY=0.5;entryDx=0;entryDy=0;startArrow=none;startFill=0;endArrow=classic;endFill=1;" parent="1" source="8" target="23" edge="1">
                    <mxGeometry relative="1" as="geometry"/>
                </mxCell>
                <mxCell id="8" value="&lt;b&gt;Python package manager&lt;/b&gt;&lt;br&gt;pkg_manager" style="rounded=0;whiteSpace=wrap;fillColor=#647687;strokeColor=#314354;fontColor=#ffffff;fontStyle=0;html=1;" parent="1" vertex="1">
                    <mxGeometry x="520" y="400" width="200" height="40" as="geometry"/>
                </mxCell>
                <mxCell id="11" style="edgeStyle=entityRelationEdgeStyle;html=1;exitX=0;exitY=0.5;exitDx=0;exitDy=0;entryX=1;entryY=0.5;entryDx=0;entryDy=0;startArrow=classic;startFill=1;endArrow=none;endFill=0;" parent="1" source="10" target="2" edge="1">
                    <mxGeometry relative="1" as="geometry"/>
                </mxCell>
                <mxCell id="22" style="edgeStyle=entityRelationEdgeStyle;html=1;exitX=1;exitY=0.5;exitDx=0;exitDy=0;entryX=0.07;entryY=0.4;entryDx=0;entryDy=0;entryPerimeter=0;startArrow=none;startFill=0;endArrow=classic;endFill=1;" parent="1" source="10" target="21" edge="1">
                    <mxGeometry relative="1" as="geometry"/>
                </mxCell>
                <mxCell id="10" value="Vehicle Model Generator&lt;br&gt;&lt;span style=&quot;font-weight: normal;&quot;&gt;vehicle_model_manager&lt;/span&gt;" style="rounded=0;whiteSpace=wrap;fillColor=#647687;strokeColor=#314354;fontColor=#ffffff;fontStyle=1;html=1;" parent="1" vertex="1">
                    <mxGeometry x="520" y="480" width="200" height="40" as="geometry"/>
                </mxCell>
                <mxCell id="20" style="edgeStyle=entityRelationEdgeStyle;html=1;exitX=1;exitY=0.5;exitDx=0;exitDy=0;entryX=0.07;entryY=0.4;entryDx=0;entryDy=0;entryPerimeter=0;startArrow=none;startFill=0;endArrow=classic;endFill=1;dashed=1;" parent="1" source="12" target="19" edge="1">
                    <mxGeometry relative="1" as="geometry"/>
                </mxCell>
                <mxCell id="12" value="&amp;nbsp;Mock services&lt;br&gt;&lt;span style=&quot;font-weight: normal;&quot;&gt;functions&lt;/span&gt;" style="rounded=0;whiteSpace=wrap;fillColor=#647687;strokeColor=#314354;fontColor=#ffffff;fontStyle=1;html=1;" parent="1" vertex="1">
                    <mxGeometry x="520" y="620" width="200" height="40" as="geometry"/>
                </mxCell>
                <mxCell id="16" style="edgeStyle=entityRelationEdgeStyle;html=1;exitX=0;exitY=0.5;exitDx=0;exitDy=0;entryX=1;entryY=0.5;entryDx=0;entryDy=0;startArrow=classic;startFill=1;endArrow=none;endFill=0;" parent="1" source="15" target="2" edge="1">
                    <mxGeometry relative="1" as="geometry"/>
                </mxCell>
                <mxCell id="18" style="edgeStyle=entityRelationEdgeStyle;html=1;exitX=1;exitY=0.5;exitDx=0;exitDy=0;entryX=0;entryY=0.5;entryDx=0;entryDy=0;startArrow=none;startFill=0;endArrow=classic;endFill=1;" parent="1" source="15" target="17" edge="1">
                    <mxGeometry relative="1" as="geometry"/>
                </mxCell>
                <mxCell id="15" value="Connect to Kuksa client" style="rounded=0;whiteSpace=wrap;html=1;fillColor=#647687;strokeColor=#314354;fontColor=#ffffff;fontStyle=1" parent="1" vertex="1">
                    <mxGeometry x="520" y="720" width="200" height="40" as="geometry"/>
                </mxCell>
                <mxCell id="40" style="edgeStyle=orthogonalEdgeStyle;curved=1;html=1;exitX=1;exitY=0.5;exitDx=0;exitDy=0;entryX=0;entryY=0.5;entryDx=0;entryDy=0;fontSize=10;" edge="1" parent="1" source="17" target="39">
                    <mxGeometry relative="1" as="geometry"/>
                </mxCell>
                <mxCell id="17" value="KUKSA" style="rounded=0;whiteSpace=wrap;html=1;fillColor=#bac8d3;strokeColor=#23445d;fontStyle=1" parent="1" vertex="1">
                    <mxGeometry x="800" y="720" width="200" height="40" as="geometry"/>
                </mxCell>
                <mxCell id="37" style="edgeStyle=orthogonalEdgeStyle;curved=1;html=1;exitX=0.96;exitY=0.7;exitDx=0;exitDy=0;exitPerimeter=0;entryX=0;entryY=0.5;entryDx=0;entryDy=0;" edge="1" parent="1" source="19" target="32">
                    <mxGeometry relative="1" as="geometry"/>
                </mxCell>
                <mxCell id="38" style="edgeStyle=orthogonalEdgeStyle;curved=1;html=1;exitX=0.96;exitY=0.7;exitDx=0;exitDy=0;exitPerimeter=0;" edge="1" parent="1" source="19" target="33">
                    <mxGeometry relative="1" as="geometry"/>
                </mxCell>
                <mxCell id="19" value="mock services" style="ellipse;shape=cloud;whiteSpace=wrap;html=1;fillColor=#bac8d3;strokeColor=#23445d;fontStyle=1;dashed=1;" parent="1" vertex="1">
                    <mxGeometry x="820" y="580" width="150" height="70" as="geometry"/>
                </mxCell>
                <mxCell id="30" style="edgeStyle=orthogonalEdgeStyle;html=1;exitX=0.96;exitY=0.7;exitDx=0;exitDy=0;exitPerimeter=0;entryX=0;entryY=0.5;entryDx=0;entryDy=0;curved=1;" edge="1" parent="1" source="21" target="31">
                    <mxGeometry relative="1" as="geometry">
                        <mxPoint x="1100" y="539.2727272727273" as="targetPoint"/>
                    </mxGeometry>
                </mxCell>
                <mxCell id="21" value="model generator" style="ellipse;shape=cloud;whiteSpace=wrap;html=1;fillColor=#bac8d3;strokeColor=#23445d;fontStyle=1;dashed=1;" parent="1" vertex="1">
                    <mxGeometry x="820" y="490" width="150" height="70" as="geometry"/>
                </mxCell>
                <mxCell id="23" value="NPM" style="rounded=0;whiteSpace=wrap;html=1;fillColor=#bac8d3;strokeColor=#23445d;fontStyle=1" parent="1" vertex="1">
                    <mxGeometry x="800" y="400" width="200" height="40" as="geometry"/>
                </mxCell>
                <mxCell id="25" value="subpiper" style="rounded=0;whiteSpace=wrap;html=1;fillColor=#bac8d3;strokeColor=#23445d;fontStyle=1" parent="1" vertex="1">
                    <mxGeometry x="800" y="320" width="200" height="40" as="geometry"/>
                </mxCell>
                <mxCell id="27" value="velocitas.model_generator" style="rounded=0;whiteSpace=wrap;fillColor=#eeeeee;strokeColor=#36393d;fontStyle=1" vertex="1" parent="1">
                    <mxGeometry x="1080" y="475" width="200" height="30" as="geometry"/>
                </mxCell>
                <mxCell id="28" value="subprocess" style="rounded=0;whiteSpace=wrap;fillColor=#eeeeee;strokeColor=#36393d;fontStyle=1" vertex="1" parent="1">
                    <mxGeometry x="1080" y="510" width="200" height="30" as="geometry"/>
                </mxCell>
                <mxCell id="29" value="shutil" style="rounded=0;whiteSpace=wrap;fillColor=#eeeeee;strokeColor=#36393d;fontStyle=1" vertex="1" parent="1">
                    <mxGeometry x="1080" y="545" width="200" height="30" as="geometry"/>
                </mxCell>
                <mxCell id="31" value="" style="rounded=0;whiteSpace=wrap;html=1;fillColor=#bac8d3;strokeColor=#23445d;" vertex="1" parent="1">
                    <mxGeometry x="1070" y="475" width="10" height="100" as="geometry"/>
                </mxCell>
                <mxCell id="35" style="edgeStyle=orthogonalEdgeStyle;curved=1;html=1;exitX=0.5;exitY=1;exitDx=0;exitDy=0;fontSize=10;fontStyle=0" edge="1" parent="1" source="32" target="33">
                    <mxGeometry relative="1" as="geometry"/>
                </mxCell>
                <mxCell id="32" value="/home/dev/ws/mock/mockprovider.py" style="rounded=0;whiteSpace=wrap;fillColor=#eeeeee;strokeColor=#36393d;fontStyle=0;fontSize=10;" vertex="1" parent="1">
                    <mxGeometry x="1070" y="605" width="220" height="30" as="geometry"/>
                </mxCell>
                <mxCell id="33" value="/home/dev/ws/mock/signals.json" style="rounded=0;whiteSpace=wrap;fillColor=#eeeeee;strokeColor=#36393d;fontStyle=0;fontSize=10;" vertex="1" parent="1">
                    <mxGeometry x="1070" y="650" width="220" height="30" as="geometry"/>
                </mxCell>
                <mxCell id="39" value="kuksa-client" style="rounded=0;whiteSpace=wrap;fillColor=#eeeeee;strokeColor=#36393d;fontStyle=1" vertex="1" parent="1">
                    <mxGeometry x="1070" y="725" width="200" height="30" as="geometry"/>
                </mxCell>
            </root>
        </mxGraphModel>
    </diagram>
</mxfile>